<?xml version="1.0" standalone="no"?>
<!DOCTYPE svg PUBLIC "-//W3C//DTD SVG 20010904//EN"
 "http://www.w3.org/TR/2001/REC-SVG-20010904/DTD/svg10.dtd">
<svg version="1.0" xmlns="http://www.w3.org/2000/svg"
 width="150.000000pt" height="150.000000pt" viewBox="0 0 150.000000 150.000000"
 preserveAspectRatio="xMidYMid meet">
<metadata>
Created by potrace 1.11, written by Peter Selinger 2001-2013
</metadata>
<g transform="translate(0.000000,150.000000) scale(0.100000,-0.100000)"
fill="#000000" stroke="none">
<path d="M615 1470 c-88 -15 -107 -20 -169 -46 -177 -75 -325 -236 -384 -421
-51 -156 -41 -349 25 -491 50 -109 185 -267 263 -307 17 -9 30 -21 30 -27 0
-6 3 -8 7 -5 3 4 12 -1 20 -11 8 -9 12 -11 8 -4 -3 6 -1 12 4 12 6 0 11 -4 11
-10 0 -5 9 -10 21 -10 11 0 18 -4 15 -9 -3 -5 1 -12 10 -15 8 -3 12 -2 9 4 -3
6 1 7 9 4 9 -3 13 -11 9 -18 -4 -6 1 -5 10 3 9 7 17 9 17 3 0 -5 12 -9 27 -9
15 0 29 -6 31 -12 2 -6 9 -8 15 -4 18 11 38 12 31 2 -3 -5 -2 -9 3 -10 4 0 19
-2 33 -5 18 -3 21 -2 10 5 -10 7 -4 9 20 7 19 -2 41 2 49 8 11 8 13 8 7 -1 -4
-7 -3 -13 1 -13 5 0 15 6 22 13 11 10 13 10 7 0 -9 -17 6 -17 23 -1 11 10 13
10 7 0 -4 -6 -2 -12 4 -12 6 0 9 -4 6 -8 -2 -4 4 -8 14 -8 10 0 16 6 13 13 -3
7 -9 10 -14 7 -5 -3 -9 0 -9 6 0 7 6 10 14 7 8 -3 19 0 25 7 8 10 37 13 75 7
5 0 3 -8 -4 -16 -16 -20 -3 -19 17 0 8 8 20 12 26 9 8 -5 8 -2 0 7 -18 19 -16
26 10 34 39 13 71 14 84 3 8 -7 13 -7 13 0 0 5 -7 12 -15 16 -17 6 -20 26 -4
26 5 0 7 -5 4 -10 -4 -6 -3 -10 2 -9 4 1 10 0 13 -1 20 -8 47 -4 47 6 0 9 -5
10 -18 3 -29 -15 -35 10 -8 35 l23 21 -19 -24 c-20 -24 -20 -24 0 -14 24 12
48 6 39 -9 -4 -6 -2 -8 4 -5 12 8 10 32 -3 44 -4 4 -5 2 -1 -4 4 -7 3 -13 -3
-13 -5 0 -9 9 -8 19 1 12 6 17 16 13 10 -4 13 -1 8 12 -4 9 -3 15 1 12 8 -5
37 14 43 29 6 16 28 15 38 -2 7 -13 9 -13 14 1 5 11 3 15 -4 10 -7 -4 -10 -1
-7 7 3 8 11 13 17 11 7 -1 10 2 6 8 -5 8 -11 7 -21 -1 -8 -6 -17 -9 -20 -6 -3
3 4 10 15 17 12 6 19 15 17 19 -3 4 6 18 19 31 21 20 27 21 42 9 9 -8 14 -9
10 -3 -4 6 2 19 12 28 19 18 25 62 9 72 -5 3 -6 -9 -3 -28 4 -23 2 -29 -4 -18
-6 8 -13 11 -18 7 -4 -5 -2 -12 5 -16 10 -6 10 -10 -2 -20 -25 -21 -28 6 -4
51 12 24 21 47 20 51 -1 5 2 6 8 2 6 -3 9 2 7 12 -2 21 16 31 21 11 2 -9 1 -9
-7 2 -7 10 -9 4 -7 -23 2 -21 7 -41 11 -45 4 -4 6 2 5 13 -4 34 0 46 11 39 14
-9 -10 38 -25 48 -7 5 -7 8 2 8 7 0 10 5 7 10 -3 5 -3 16 2 22 4 7 8 21 9 31
1 9 3 18 4 20 9 9 6 174 -4 186 -8 11 -8 13 0 8 7 -4 14 -1 16 6 7 17 -2 38
-13 31 -5 -3 -9 0 -9 5 0 6 5 11 10 11 6 0 10 5 10 11 0 5 -4 8 -9 4 -5 -3
-12 -1 -16 5 -3 5 2 10 12 11 16 0 16 1 -2 9 -11 5 -16 9 -11 9 5 1 2 9 -5 18
-8 9 -9 14 -4 11 6 -4 11 2 11 12 0 11 -5 16 -15 12 -10 -4 -13 -1 -8 12 4 10
3 15 -3 11 -10 -6 -13 3 -13 38 0 9 -6 17 -14 17 -8 0 -11 5 -8 10 3 6 1 10
-4 10 -6 0 -11 4 -11 10 0 15 -28 48 -117 137 -68 68 -98 90 -175 126 -51 25
-115 50 -142 56 -66 16 -199 21 -261 11z m340 -1330 c-3 -5 -1 -10 6 -10 7 0
10 -3 6 -6 -9 -9 -28 6 -22 17 4 5 8 9 11 9 3 0 2 -4 -1 -10z"/>
<path d="M1435 819 c-4 -6 -5 -12 -2 -15 2 -3 7 2 10 11 7 17 1 20 -8 4z"/>
<path d="M1412 778 c2 -6 10 -13 16 -14 7 -1 8 0 2 3 -5 2 -8 9 -4 14 3 5 0 9
-6 9 -7 0 -10 -5 -8 -12z"/>
<path d="M1430 721 c0 -7 -5 -9 -12 -5 -7 5 -8 3 -3 -5 5 -9 10 -10 18 -2 6 6
8 14 4 18 -4 3 -7 1 -7 -6z"/>
<path d="M1406 681 c-3 -4 1 -17 10 -27 14 -18 14 -18 4 4 -11 22 -10 23 12
17 18 -5 20 -4 8 4 -18 13 -27 14 -34 2z"/>
<path d="M1396 633 c-3 -4 -6 -11 -6 -17 0 -6 5 -4 10 4 6 10 10 11 10 3 0 -7
5 -13 10 -13 6 0 10 4 10 9 0 11 -26 22 -34 14z"/>
<path d="M1401 583 c7 -10 14 -19 15 -21 1 -2 4 4 8 13 3 9 2 13 -4 10 -6 -3
-10 -1 -10 4 0 6 -5 11 -11 11 -8 0 -7 -6 2 -17z"/>
<path d="M1289 394 c-16 -19 -21 -44 -9 -44 5 0 10 -6 13 -12 2 -7 3 -4 1 7
-2 10 4 27 12 36 9 10 11 20 6 23 -5 3 -16 -1 -23 -10z m21 2 c0 -2 -8 -10
-17 -17 -16 -13 -17 -12 -4 4 13 16 21 21 21 13z"/>
<path d="M1230 301 c0 -5 -9 -13 -20 -16 -11 -3 -24 -14 -29 -23 -7 -14 -4
-17 15 -18 23 -2 24 -1 7 12 -17 13 -17 13 2 15 11 1 27 1 35 0 9 0 10 2 3 5
-7 3 -9 12 -6 20 3 8 2 14 -1 14 -3 0 -6 -4 -6 -9z"/>
<path d="M1185 220 c3 -5 8 -10 11 -10 2 0 4 5 4 10 0 6 -5 10 -11 10 -5 0 -7
-4 -4 -10z"/>
<path d="M1001 146 c-9 -10 -9 -16 -1 -21 6 -4 14 -4 17 -1 4 3 1 6 -7 6 -10
0 -10 3 0 15 7 8 10 15 7 15 -2 0 -10 -6 -16 -14z"/>
<path d="M1056 147 c3 -10 9 -15 12 -12 3 3 0 11 -7 18 -10 9 -11 8 -5 -6z"/>
<path d="M1030 140 c0 -5 5 -10 11 -10 5 0 7 5 4 10 -3 6 -8 10 -11 10 -2 0
-4 -4 -4 -10z"/>
<path d="M871 107 c-9 -11 -8 -17 4 -27 13 -11 16 -11 13 1 -2 8 2 13 9 12 6
-1 17 5 25 15 11 15 11 16 -3 5 -10 -9 -19 -9 -26 -2 -7 7 -14 5 -22 -4z"/>
<path d="M712 71 c7 -9 13 -17 14 -19 1 -1 7 4 14 13 11 13 10 14 -5 9 -11 -5
-16 -4 -12 3 3 5 0 10 -8 10 -12 0 -12 -3 -3 -16z"/>
<path d="M766 82 c-3 -5 1 -9 9 -9 8 0 12 4 9 9 -3 4 -7 8 -9 8 -2 0 -6 -4 -9
-8z"/>
</g>
</svg>
